#!OML:ASF Y:\EmotionMaleHayes\Project 1\Capture day 1\Session 1\Male1.ASF
:FULLY-SPECIFIED
:DEGREES
43
root -29.8018 17.072 1.26254 53.1129 86.3075 53.9844
lowerback 5.48361 1.56029 -5.37786
upperback 0.872879 1.77466 -0.367983
thorax -2.32461 0.936231 2.50272
lowerneck -22.6642 2.19232 3.79358
upperneck 20.9235 2.21923 -1.5871
head 10.5214 1.15433 -0.845898
rclavicle 7.58643e-015 6.7711e-015
rhumerus -36.8291 4.12034 -87.4073
rradius 29.6755
rwrist 4.35151
rhand -11.8726 -27.9967
rfingers 7.12502
rthumb 14.1797 -57.4927
lclavicle 7.58643e-015 6.7711e-015
lhumerus -33.1813 -6.82866 91.1424
lradius 20.433
lwrist -19.7889
lhand -16.5009 -28.5449
lfingers 7.12502
lthumb 9.71689 1.211
rfemur 8.14837 -3.83575 9.56577
rtibia 3.71386
rfoot -13.5316 6.28437
rtoes 6.7821
lfemur 12.3003 0.423711 -16.7992
ltibia 0.421878
lfoot -14.7597 16.2801
ltoes -9.86935
44
root -29.8003 17.0688 1.26044 52.5602 86.2744 53.3616
lowerback 5.4048 1.58626 -5.38983
upperback 0.840141 1.81202 -0.358659
thorax -2.31822 0.955125 2.51755
lowerneck -22.6628 2.19196 3.85517
upperneck 20.9675 2.21437 -1.64691
head 10.5387 1.15021 -0.878277
rclavicle -1.27032e-014 1.97232e-015
rhumerus -36.8412 4.14062 -87.3629
rradius 29.7575
rwrist 4.31944
rhand -11.7778 -28.2214
rfingers 7.12502
rthumb 14.2711 -57.711
lclavicle -1.27032e-014 1.97232e-015
lhumerus -33.3221 -6.968 91.1928
lradius 20.5625
lwrist -19.6477
lhand -16.4864 -28.4333
lfingers 7.12502
lthumb 9.73094 1.32192
rfemur 8.06728 -3.74902 9.60263
rtibia 3.68564
rfoot -13.5553 6.16415
rtoes 6.28198
lfemur 12.1619 0.703863 -16.7071
ltibia 0.576616
lfoot -14.7592 16.0478
ltoes -10.51
45
root -29.8045 17.0659 1.26035 51.9267 86.422 52.6666
lowerback 5.41369 1.58378 -5.23634
upperback 0.789528 1.81496 -0.326091
thorax -2.37222 0.957095 2.46402
lowerneck -22.5529 2.15149 3.87351
upperneck 20.9788 2.1733 -1.70465
head 10.5223 1.12702 -0.909064
rclavicle -2.00105e-015 -8.01351e-016
rhumerus -36.8865 4.05237 -87.2902
rradius 29.8354
rwrist 4.20451
rhand -11.8098 -28.3209
rfingers 7.12502
rthumb 14.2403 -57.8127
lclavicle -2.00105e-015 -8.01351e-016
lhumerus -33.3704 -7.18422 91.24
lradius 20.6172
lwrist -19.413
lhand -17.0072 -28.3657
lfingers 7.12502
lthumb 9.22835 1.41231
rfemur 7.98563 -3.78328 9.77697
rtibia 3.70081
rfoot -13.552 6.13175
rtoes 5.87337
lfemur 11.9676 0.859897 -16.4314
ltibia 0.77213
lfoot -14.7842 15.8198
ltoes -11.1673
46
root -29.8069 17.068 1.26067 50.0155 86.5249 50.7659
lowerback 5.44696 1.61447 -5.06988
upperback 0.77858 1.86297 -0.315364
thorax -2.40124 0.980245 2.37706
lowerneck -22.4542 2.1185 3.91624
upperneck 20.9633 2.11973 -1.71222
head 10.4975 1.106 -0.927637
rclavicle 6.14447e-015 -1.14674e-014
rhumerus -36.9135 3.88504 -87.239
rradius 29.8644
rwrist 4.13005
rhand -11.8571 -28.3577
rfingers 7.12502
rthumb 14.1947 -57.8527
lclavicle 6.14447e-015 -1.14674e-014
lhumerus -33.3285 -7.37113 91.2101
lradius 20.6283
lwrist -19.2229
lhand -17.552 -28.3363
lfingers 7.12502
lthumb 8.70268 1.4643
rfemur 7.96747 -3.78972 9.96627
rtibia 3.75894
rfoot -13.5923 6.16122
rtoes 5.79612
lfemur 11.9829 0.878975 -16.2294
ltibia 0.778195
lfoot -14.7969 15.8045
ltoes -11.5281
47
root -29.807 17.0714 1.2595 50.1107 86.4825 50.9128
lowerback 5.47528 1.64339 -5.09827
upperback 0.805073 1.89888 -0.3479
thorax -2.39232 0.997905 2.35613
lowerneck -22.4244 2.10095 3.92947
upperneck 20.965 2.07868 -1.65847
head 10.491 1.09548 -0.917002
rclavicle -3.21783e-015 -4.57205e-015
rhumerus -36.8726 3.8031 -87.2171
rradius 29.8732
rwrist 4.09945
rhand -11.79 -28.5297
rfingers 7.12502
rthumb 14.2593 -58.0201
lclavicle -3.21783e-015 -4.57205e-015
lhumerus -33.2859 -7.52773 91.1843
lradius 20.7179
lwrist -19.0297
lhand -17.0196 -28.1793
lfingers 7.12502
lthumb 9.21643 1.59929
rfemur 8.01846 -3.76315 9.92587
rtibia 3.78102
rfoot -13.6219 6.14556
rtoes 5.88596
lfemur 12.0591 1.01606 -16.2495
ltibia 0.758329
lfoot -14.6739 15.7528
ltoes -11.8202
48
root -29.8071 17.0712 1.25701 51.3767 86.4502 52.1908
lowerback 5.46017 1.63432 -5.14649
upperback 0.819495 1.885 -0.391469
thorax -2.36789 0.990722 2.33988
lowerneck -22.4131 2.1118 4.00095
upperneck 20.9942 2.07828 -1.68723
head 10.5008 1.0981 -0.939215
rclavicle 8.0104e-015 -6.60959e-015
rhumerus -36.8558 3.75354 -87.2156
rradius 29.9199
rwrist 4.11944
rhand -11.7695 -28.5345
rfingers 7.12502
rthumb 14.2791 -58.0236
lclavicle 8.0104e-015 -6.60959e-015
lhumerus -33.2398 -7.51858 91.0858
lradius 20.8116
lwrist -18.9799
lhand -15.8861 -27.9922
lfingers 7.12502
lthumb 10.31 1.73513
rfemur 8.04774 -3.77152 9.82053
rtibia 3.7505
rfoot -13.6093 6.16276
rtoes 6.37658
lfemur 12.0715 1.04824 -16.3419
ltibia 0.71095
lfoot -14.5484 15.7418
ltoes -11.9433
49
root -29.8086 17.0698 1.25389 51.8481 86.4669 52.6233
lowerback 5.42256 1.62016 -5.09582
upperback 0.797364 1.86978 -0.426107
thorax -2.36576 0.982864 2.27762
lowerneck -22.4044 2.12384 4.12819
upperneck 21.0674 2.08701 -1.81389
head 10.5293 1.09775 -1.00442
rclavicle -7.29912e-017 -1.73937e-015
rhumerus -36.8969 3.72431 -87.2347
rradius 30.0127
rwrist 4.09974
rhand -11.8017 -28.7015
rfingers 7.12502
rthumb 14.2481 -58.1928
lclavicle -7.29912e-017 -1.73937e-015
lhumerus -33.218 -7.4685 90.9677
lradius 20.8391
lwrist -19.0955
lhand -16.2765 -27.8313
lfingers 7.12502
lthumb 9.93336 1.91438
rfemur 7.99319 -3.85685 9.77843
rtibia 3.7461
rfoot -13.5713 6.21482
rtoes 6.53304
lfemur 12.0856 0.602189 -16.5355
ltibia 0.556705
lfoot -14.6841 16.1484
ltoes -11.4257
50
root -29.8102 17.0689 1.25184 51.7949 86.4637 52.4945
lowerback 5.36804 1.61769 -5.06936
upperback 0.746597 1.86891 -0.424848
thorax -2.38692 0.9832 2.26479
lowerneck -22.2989 2.11432 4.11436
upperneck 21.0597 2.09551 -1.85572
head 10.5076 1.09629 -1.01636
rclavicle 1.28682e-014 -1.14301e-014
rhumerus -36.9132 3.71397 -87.1858
rradius 30.0709
rwrist 3.98454
rhand -11.7057 -29.0327
rfingers 7.12502
rthumb 14.3406 -58.5174
lclavicle 1.28682e-014 -1.14301e-014
lhumerus -33.2139 -7.5339 90.9818
lradius 20.8247
lwrist -19.1765
lhand -17.2608 -27.4788
lfingers 7.12502
lthumb 8.98366 2.30996
rfemur 7.87637 -3.99362 9.73365
rtibia 3.78876
rfoot -13.5506 6.28214
rtoes 6.09339
lfemur 12.1566 -0.119483 -16.8195
ltibia 0.221531
lfoot -14.8863 16.8569
ltoes -10.5647
51
root -29.8109 17.0691 1.25221 51.3726 86.4556 52.0464
lowerback 5.32513 1.6227 -5.08353
upperback 0.743116 1.87747 -0.402733
thorax -2.36837 0.987186 2.29596
lowerneck -22.2572 2.12128 4.04798
upperneck 21.0409 2.11982 -1.81672
head 10.4925 1.10703 -0.987833
rclavicle 1.58375e-014 -1.89839e-014
rhumerus -36.8469 3.68439 -87.106
rradius 30.0975
rwrist 3.76305
rhand -11.667 -29.0536
rfingers 7.12502
rthumb 14.3779 -58.5356
lclavicle 1.58375e-014 -1.89839e-014
lhumerus -33.1007 -7.47462 90.9507
lradius 20.8006
lwrist -19.3376
lhand -17.3217 -27.2704
lfingers 7.12502
lthumb 8.92487 2.52084
rfemur 7.83711 -4.04078 9.7247
rtibia 3.79556
rfoot -13.4936 6.32408
rtoes 6.09209
lfemur 12.1534 -0.00978851 -16.7397
ltibia 0.14986
lfoot -14.8158 16.76
ltoes -10.4969
52
root -29.8115 17.0705 1.2524 50.5201 86.4948 51.2504
lowerback 5.33535 1.6225 -5.04497
upperback 0.788763 1.8812 -0.374993
thorax -2.32687 0.987216 2.30325
lowerneck -22.336 2.14215 4.05435
upperneck 21.143 2.15166 -1.83982
head 10.5457 1.11977 -0.991935
rclavicle -1.33248e-015 6.68413e-015
rhumerus -36.8144 3.85005 -87.1726
rradius 30.2023
rwrist 3.63596
rhand -11.7736 -29.2132
rfingers 7.12502
rthumb 14.2751 -58.7025
lclavicle -1.33248e-015 6.68413e-015
lhumerus -32.9305 -7.27138 90.8202
lradius 20.7864
lwrist -19.4827
lhand -17.4286 -27.404
lfingers 7.12502
lthumb 8.82177 2.39157
rfemur 7.90165 -3.88559 9.8477
rtibia 3.77869
rfoot -13.459 6.20068
rtoes 6.34948
lfemur 12.0617 0.746547 -16.3595
ltibia 0.457548
lfoot -14.7363 16.0186
ltoes -10.6888
53
root -29.813 17.0698 1.25026 50.4104 86.5262 51.1694
lowerback 5.3551 1.6113 -4.99632
upperback 0.7822 1.86767 -0.367988
thorax -2.34235 0.980468 2.28369
lowerneck -22.2514 2.14982 4.09828
upperneck 21.18 2.17608 -1.92571
head 10.546 1.12523 -1.02673
rclavicle 3.34673e-015 8.57259e-015
rhumerus -36.8256 3.87346 -87.1761
rradius 30.2559
rwrist 3.52798
rhand -11.775 -29.2155
rfingers 7.12502
rthumb 14.2738 -58.705
lclavicle 3.34673e-015 8.57259e-015
lhumerus -32.8661 -7.08669 90.6749
lradius 20.8126
lwrist -19.5792
lhand -17.046 -27.5284
lfingers 7.12502
lthumb 9.19099 2.25128
rfemur 7.92974 -3.70725 9.93733
rtibia 3.79324
rfoot -13.5111 6.03666
rtoes 6.41049
lfemur 11.9956 1.02224 -16.2233
ltibia 0.621966
lfoot -14.7483 15.7489
ltoes -10.5123
54
root -29.8123 17.0681 1.24701 50.4766 86.4859 51.2132
lowerback 5.29473 1.61155 -5.01693
upperback 0.763609 1.86954 -0.367017
thorax -2.32863 0.981452 2.29738
lowerneck -22.0597 2.14381 4.07209
upperneck 21.1064 2.18834 -1.93642
head 10.484 1.1285 -1.02521
rclavicle -6.95591e-015 -2.01766e-014
rhumerus -36.7818 3.7581 -87.111
rradius 30.1931
rwrist 3.58887
rhand -11.9769 -29.1327
rfingers 7.12502
rthumb 14.0792 -58.6357
lclavicle -6.95591e-015 -2.01766e-014
lhumerus -32.8448 -6.99242 90.5945
lradius 20.8937
lwrist -19.6192
lhand -16.117 -27.6674
lfingers 7.12502
lthumb 10.0873 2.07085
rfemur 7.87184 -3.87777 9.82061
rtibia 3.88177
rfoot -13.5156 6.24321
rtoes 6.23138
lfemur 11.9924 0.929777 -16.3148
ltibia 0.600159
lfoot -14.8664 15.8888
ltoes -10.3892
55
root -29.8107 17.0682 1.24423 49.4946 86.545 50.2608
lowerback 5.24844 1.60876 -4.98209
upperback 0.804356 1.87333 -0.287483
thorax -2.26245 0.981029 2.36162
lowerneck -21.9853 2.13297 3.99058
upperneck 21.0921 2.21077 -1.95917
head 10.4649 1.12985 -1.01685
rclavicle 1.3357e-014 7.2867e-015
rhumerus -36.6517 3.76409 -87.0089
rradius 30.1436
rwrist 3.67706
rhand -12.0562 -29.3411
rfingers 7.12502
rthumb 14.0029 -58.8494
lclavicle 1.3357e-014 7.2867e-015
lhumerus -32.7711 -6.97281 90.6499
lradius 21.0133
lwrist -19.5282
lhand -16.2518 -27.762
lfingers 7.12502
lthumb 9.95723 1.98251
rfemur 7.88876 -4.1848 9.81178
rtibia 3.9533
rfoot -13.4692 6.60379
rtoes 5.74267
lfemur 12.0495 0.918867 -16.244
ltibia 0.600734
lfoot -15.0409 15.8932
ltoes -10.0407
56
root -29.8096 17.0668 1.24087 47.5269 86.7995 48.3329
lowerback 5.25035 1.55678 -4.59206
upperback 0.830209 1.82668 -0.27609
thorax -2.22147 0.953278 2.15908
lowerneck -21.9806 2.14243 3.98607
upperneck 21.1554 2.2165 -1.91377
head 10.4868 1.13873 -0.998989
rclavicle 1.13835e-015 9.50439e-015
rhumerus -36.5319 3.68453 -87.0591
rradius 30.1102
rwrist 3.71199
rhand -11.9868 -29.4488
rfingers 7.12502
rthumb 14.0698 -58.9526
lclavicle 1.13835e-015 9.50439e-015
lhumerus -32.6885 -7.13754 90.6038
lradius 21.133
lwrist -19.2282
lhand -16.8766 -27.673
lfingers 7.12502
lthumb 9.35438 2.09945
rfemur 7.98427 -4.24389 10.1335
rtibia 3.90324
rfoot -13.4584 6.62071
rtoes 5.68565
lfemur 12.09 1.01648 -15.8967
ltibia 0.617471
lfoot -14.966 15.6427
ltoes -9.36322
57
root -29.81 17.0655 1.23744 47.6472 86.9102 48.4151
lowerback 5.17338 1.5248 -4.48525
upperback 0.831306 1.79434 -0.250879
thorax -2.17252 0.935212 2.12975
lowerneck -21.99 2.16996 3.94062
upperneck 21.2183 2.26733 -1.8944
head 10.5122 1.16143 -0.976674
rclavicle 1.00549e-014 7.30534e-015
rhumerus -36.4535 3.60449 -87.0044
rradius 30.0924
rwrist 3.69568
rhand -12.0547 -29.2851
rfingers 7.12502
rthumb 14.0043 -58.7934
lclavicle 1.00549e-014 7.30534e-015
lhumerus -32.6151 -7.45861 90.7314
lradius 21.28
lwrist -18.6555
lhand -17.006 -27.5254
lfingers 7.12502
lthumb 9.22954 2.25259
rfemur 7.94921 -4.44205 10.1647
rtibia 3.92534
rfoot -13.4961 6.65607
rtoes 5.97027
lfemur 12.0308 0.977895 -15.8175
ltibia 0.644814
lfoot -14.8231 15.6108
ltoes -9.57213
